<svg width="55" height="34" viewBox="0 0 55 34" fill="none" xmlns="http://www.w3.org/2000/svg">
<path d="M18.4958 4.27709C13.6145 4.27709 8.74988 4.27709 3.85175 4.27709C4.40531 2.76739 4.50596 2.68352 5.9821 2.68352C14.9732 2.68352 23.9475 2.68352 32.9386 2.66675C33.7437 2.66675 34.4147 2.85126 34.9515 3.47192C35.6896 4.31064 35.6896 5.1829 34.985 6.30679C32.385 10.3997 29.785 14.4927 27.1849 18.5689C24.0649 23.4838 20.9281 28.3819 17.8081 33.2968C17.5229 33.7497 17.2377 33.8671 16.7513 33.8671C11.417 33.8504 6.09952 33.8503 0.765265 33.8503C0.513649 33.8503 0.161387 33.9007 0.0607405 33.7833C-0.140552 33.5149 0.21171 33.2968 0.345905 33.0787C6.20017 23.836 12.088 14.6101 17.9422 5.36742C18.1603 5.04871 18.4623 4.78032 18.4958 4.27709Z" fill="black"/>
<path d="M28.2752 19.0725C29.701 16.8415 31.0262 14.7279 32.3682 12.6143C33.5927 10.6853 34.7837 8.73946 36.0585 6.84396C36.8134 5.72007 37.0314 4.62974 36.3772 3.40521C35.6727 2.13035 34.5656 1.56002 33.1566 1.56002C27.7217 1.54325 22.27 1.56002 16.8351 1.56002C13.2621 1.56002 9.68917 1.56002 6.11623 1.56002C5.93171 1.56002 5.74719 1.54325 5.5459 1.52647C5.93171 0.419361 6.55236 0 7.77689 0C21.7835 0.0503232 35.7901 0.0335508 49.7968 0.0335508C52.531 0.0335508 54.5775 2.24777 54.4097 4.96522C54.3762 5.5691 54.1581 6.08911 53.8394 6.59234C51.3065 10.5846 48.7568 14.577 46.2406 18.586C46.0225 18.9383 45.8045 19.0893 45.3851 19.0893C39.7154 19.0725 34.0792 19.0725 28.2752 19.0725Z" fill="black"/>
</svg>
