<svg width="25" height="28" viewBox="0 0 25 28" fill="none" xmlns="http://www.w3.org/2000/svg">
<path d="M20.0909 9.18324C20.0909 7.15795 19.2864 5.21561 17.8543 3.78351C16.4222 2.35142 14.4798 1.54688 12.4545 1.54688C10.4293 1.54688 8.48692 2.35142 7.05482 3.78351C5.62273 5.21561 4.81818 7.15795 4.81818 9.18324C4.81818 18.0923 1 20.6378 1 20.6378H23.9091C23.9091 20.6378 20.0909 18.0923 20.0909 9.18324Z" stroke="white" stroke-width="2" stroke-linecap="round" stroke-linejoin="round"/>
<path d="M14.6605 25.7286C14.4367 26.1144 14.1155 26.4346 13.7291 26.6571C13.3427 26.8797 12.9046 26.9969 12.4587 26.9969C12.0127 26.9969 11.5746 26.8797 11.1882 26.6571C10.8018 26.4346 10.4806 26.1144 10.2568 25.7286" stroke="white" stroke-width="2" stroke-linecap="round" stroke-linejoin="round"/>
</svg>
