<svg width="203" height="35" viewBox="0 0 203 35" fill="none" xmlns="http://www.w3.org/2000/svg">
<rect width="203" height="35" fill="#EBEBEB"/>
<path d="M18.4958 4.27709C13.6145 4.27709 8.74988 4.27709 3.85175 4.27709C4.40531 2.76739 4.50596 2.68352 5.9821 2.68352C14.9732 2.68352 23.9475 2.68352 32.9386 2.66675C33.7437 2.66675 34.4147 2.85126 34.9515 3.47192C35.6896 4.31064 35.6896 5.1829 34.985 6.30679C32.385 10.3997 29.785 14.4927 27.1849 18.5689C24.0649 23.4838 20.9281 28.3819 17.8081 33.2968C17.5229 33.7497 17.2377 33.8671 16.7513 33.8671C11.417 33.8504 6.09952 33.8503 0.765265 33.8503C0.513649 33.8503 0.161387 33.9007 0.0607405 33.7833C-0.140552 33.5149 0.21171 33.2968 0.345905 33.0787C6.20017 23.836 12.088 14.6101 17.9422 5.36742C18.1603 5.04871 18.4623 4.78032 18.4958 4.27709Z" fill="black"/>
<path d="M28.2752 19.0725C29.701 16.8415 31.0262 14.7279 32.3682 12.6143C33.5927 10.6853 34.7837 8.73946 36.0585 6.84396C36.8134 5.72007 37.0314 4.62974 36.3772 3.40521C35.6727 2.13035 34.5656 1.56002 33.1566 1.56002C27.7217 1.54325 22.27 1.56002 16.8351 1.56002C13.2621 1.56002 9.68917 1.56002 6.11623 1.56002C5.93171 1.56002 5.74719 1.54325 5.5459 1.52647C5.93171 0.419361 6.55236 0 7.77689 0C21.7835 0.0503232 35.7901 0.0335508 49.7968 0.0335508C52.531 0.0335508 54.5775 2.24777 54.4097 4.96522C54.3762 5.5691 54.1581 6.08911 53.8394 6.59234C51.3065 10.5846 48.7568 14.577 46.2406 18.586C46.0225 18.9383 45.8045 19.0893 45.3851 19.0893C39.7154 19.0725 34.0792 19.0725 28.2752 19.0725Z" fill="black"/>
<path d="M51 34.4058L63.1173 11.0842H74.8195C77.6414 11.0842 79.4673 11.7482 80.2972 13.1591C81.1272 14.57 80.8782 16.5619 79.5503 19.2177C78.1393 21.8736 76.3134 23.8654 74.0726 25.2764C71.7487 26.6873 69.2589 27.3512 66.4371 27.3512H59.3825L55.7307 34.4058H51ZM72.9107 14.653H65.8561L61.2084 23.6165H68.2629C69.5909 23.6165 70.8358 23.2845 71.9977 22.5375C73.1596 21.7906 74.0726 20.6286 74.9025 19.1347C75.6495 17.6408 75.8985 16.5619 75.5665 15.8149C75.1515 15.068 74.3216 14.653 72.9107 14.653Z" fill="black"/>
<path d="M83.3653 27.267C81.6225 27.267 80.5435 26.852 80.1285 25.9391C79.6306 25.1091 79.8796 23.8642 80.7095 22.2873C81.5395 20.7104 82.6184 19.4655 83.9463 18.6355C85.2742 17.8056 86.8511 17.3076 88.511 17.3076H100.628L101.043 16.5607C101.707 15.3157 101.375 14.6518 100.13 14.6518H86.6851L88.594 11H103.201C105.11 11 106.272 11.415 106.604 12.3279C106.936 13.1579 106.687 14.4028 105.94 15.9797L100.13 27.267H83.3653ZM86.0212 23.6982H97.3085L98.7194 21.0424H87.4321C87.0171 21.0424 86.6851 21.2084 86.2702 21.4574C85.9382 21.7063 85.6892 22.0383 85.4402 22.3703C85.2742 22.7853 85.1912 23.1173 85.2742 23.3662C85.3572 23.5322 85.6062 23.6982 86.0212 23.6982Z" fill="black"/>
<path d="M104.279 34.4046L106.188 30.7528H115.733C116.978 30.7528 117.973 30.0888 118.637 28.8439L119.467 27.267H109.674C107.848 27.267 106.686 26.769 106.354 25.8561C106.022 24.9431 106.188 23.6982 106.935 22.2873L112.745 11H117.309L111.749 21.7063C111.085 22.9513 111.417 23.6152 112.662 23.6152H121.127L127.684 11H132.415L122.87 29.4249C122.123 30.9188 121.044 32.0807 119.716 32.9937C118.388 33.9066 116.812 34.4046 114.986 34.4046H104.279Z" fill="black"/>
<path d="M135.657 27.433C132.835 27.433 131.009 26.769 130.179 25.3581C129.349 23.9472 129.598 21.8723 131.009 19.2165C132.42 16.4777 134.246 14.4028 136.57 13.0749C138.894 11.664 141.467 11 144.288 11H152.173C153.999 11 155.244 11.415 155.742 12.3279C156.323 13.1579 156.157 14.4028 155.327 16.0627C153.584 19.3825 150.845 21.0424 147.027 21.0424H135.076C134.495 23.0343 135.325 23.9472 137.566 23.9472H150.347L148.438 27.599H135.657V27.433ZM142.38 14.4858C140.222 14.4858 138.396 15.3987 136.985 17.2246H148.687C149.102 17.2246 149.517 17.0586 149.849 16.8096C150.264 16.5607 150.513 16.2287 150.762 15.7307C151.26 14.8178 151.011 14.4028 150.098 14.4028H142.38V14.4858Z" fill="black"/>
<path d="M151.668 27.267L153.411 23.9472L171.006 14.6518H158.806L160.714 11H179.637L177.894 14.3198L160.299 23.6152H173.081L171.172 27.267H151.668Z" fill="black"/>
<path d="M174.159 34.4046L176.068 30.7528H185.612C186.857 30.7528 187.853 30.0888 188.517 28.8439L189.347 27.267H179.554C177.728 27.267 176.566 26.769 176.234 25.8561C175.902 24.9431 176.068 23.6982 176.815 22.2873L182.625 11H187.189L181.629 21.7063C180.965 22.9513 181.297 23.6152 182.542 23.6152H191.007L197.564 11H202.294L192.75 29.3419C192.003 30.8358 190.924 31.9977 189.596 32.9107C188.268 33.8236 186.691 34.3216 184.866 34.3216H174.159V34.4046Z" fill="black"/>
</svg>
