<svg width="83" height="77" viewBox="0 0 83 77" fill="none" xmlns="http://www.w3.org/2000/svg">
<rect width="83" height="76.1406" fill="#081527"/>
<path d="M32.0809 23.0919C27.0451 23.0919 22.0267 23.0919 16.9736 23.0919C17.5447 21.3042 17.6485 21.2049 19.1713 21.2049C28.4468 21.2049 37.705 21.2049 46.9805 21.1851C47.8112 21.1851 48.5034 21.4035 49.0571 22.1385C49.8186 23.1316 49.8186 24.1645 49.0918 25.4953C46.4095 30.3419 43.7272 35.1884 41.0449 40.0151C37.8262 45.835 34.5901 51.635 31.3714 57.4548C31.0772 57.9911 30.783 58.1301 30.2812 58.1301C24.7782 58.1103 19.2925 58.1103 13.7895 58.1103C13.5299 58.1103 13.1665 58.1699 13.0627 58.0308C12.855 57.713 13.2184 57.4548 13.3568 57.1966C19.3963 46.2521 25.4704 35.3275 31.5098 24.383C31.7348 24.0056 32.0463 23.6878 32.0809 23.0919Z" fill="url(#paint0_linear_513_137)"/>
<path d="M42.2106 40.6567C43.6809 38.0065 45.0474 35.4957 46.4312 32.9849C47.6939 30.6933 48.922 28.3818 50.2367 26.1301C51.015 24.795 51.2399 23.4998 50.5653 22.0451C49.8388 20.5307 48.6972 19.8532 47.2442 19.8532C41.6398 19.8333 36.0181 19.8532 30.4137 19.8532C26.7293 19.8532 23.0449 19.8532 19.3606 19.8532C19.1703 19.8532 18.98 19.8333 18.7725 19.8133C19.1703 18.4982 19.8103 18 21.073 18C35.5165 18.0598 49.9599 18.0399 64.4033 18.0399C67.2228 18.0399 69.3331 20.6702 69.1601 23.8983C69.1255 24.6157 68.9007 25.2334 68.572 25.8312C65.9601 30.5738 63.3309 35.3163 60.7362 40.0788C60.5114 40.4973 60.2865 40.6766 59.8541 40.6766C54.0075 40.6567 48.1955 40.6567 42.2106 40.6567Z" fill="url(#paint1_linear_513_137)"/>
<defs>
<linearGradient id="paint0_linear_513_137" x1="53.3898" y1="21.1851" x2="9.40645" y2="28.427" gradientUnits="userSpaceOnUse">
<stop stop-color="#62CFF4"/>
<stop offset="1" stop-color="#2C67F2"/>
</linearGradient>
<linearGradient id="paint1_linear_513_137" x1="74.339" y1="18" x2="19.6383" y2="38.1873" gradientUnits="userSpaceOnUse">
<stop stop-color="#62CFF4"/>
<stop offset="1" stop-color="#2C67F2"/>
</linearGradient>
</defs>
</svg>
