<svg width="266" height="234" viewBox="0 0 266 234" fill="none" xmlns="http://www.w3.org/2000/svg">
<path d="M138.336 12.1662C101.827 12.1662 65.4432 12.1662 28.8085 12.1662C32.9487 0.872969 33.7015 0.245567 44.7421 0.245567C111.989 0.245567 179.111 0.245598 246.358 0.120117C252.38 0.120117 257.399 1.50039 261.414 6.14316C266.934 12.4172 266.934 18.9422 261.665 27.3493C242.218 57.9666 222.772 88.5838 203.325 119.076C179.989 155.841 156.528 192.482 133.192 229.247C131.059 232.635 128.927 233.514 125.288 233.514C85.3915 233.388 45.6203 233.388 5.72367 233.388C3.84175 233.388 1.20707 233.765 0.454298 232.886C-1.05124 230.879 1.58345 229.247 2.58714 227.616C46.3731 158.476 90.41 89.4621 134.196 20.3224C135.827 17.9383 138.085 15.9306 138.336 12.1662Z" fill="url(#paint0_linear_410_60)"/>
<defs>
<linearGradient id="paint0_linear_410_60" x1="292.825" y1="0.120104" x2="-23.4066" y2="59.8754" gradientUnits="userSpaceOnUse">
<stop stop-color="#62CFF4"/>
<stop offset="1" stop-color="#2C67F2"/>
</linearGradient>
</defs>
</svg>
