<svg width="367" height="144" viewBox="0 0 367 144" fill="none" xmlns="http://www.w3.org/2000/svg">
<path d="M170.776 143.129C181.436 126.387 191.343 110.526 201.375 94.6644C210.53 80.1878 219.434 65.5853 228.965 51.3605C234.608 42.9263 236.238 34.7438 231.347 25.5544C226.08 15.9872 217.803 11.7072 207.269 11.7072C166.638 11.5813 125.88 11.7072 85.2486 11.7072C58.5369 11.7072 31.8253 11.7072 5.11367 11.7072C3.7342 11.7072 2.35473 11.5813 0.849854 11.4554C3.73421 3.14709 8.37426 0 17.529 0C122.244 0.37765 226.958 0.251782 331.673 0.251782C352.114 0.251782 367.414 16.8684 366.16 37.2615C365.909 41.7933 364.279 45.6957 361.896 49.4722C342.959 79.4325 323.898 109.393 305.087 139.479C303.456 142.122 301.826 143.255 298.691 143.255C256.303 143.129 214.167 143.129 170.776 143.129Z" fill="url(#paint0_linear_410_61)"/>
<defs>
<linearGradient id="paint0_linear_410_61" x1="403.707" y1="-8.26747e-06" x2="21.6486" y2="161.815" gradientUnits="userSpaceOnUse">
<stop stop-color="#62CFF4"/>
<stop offset="1" stop-color="#2C67F2"/>
</linearGradient>
</defs>
</svg>
